<svg xmlns="http://www.w3.org/2000/svg" viewBox="0 0 512 512">
  <defs>
    <linearGradient id="bg" x1="0" x2="1" y1="0" y2="1">
      <stop offset="0" stop-color="#f8dfc8"/>
      <stop offset="1" stop-color="#c96e4b"/>
    </linearGradient>
  </defs>
  <rect width="512" height="512" rx="120" fill="url(#bg)"/>
  <circle cx="180" cy="205" r="54" fill="#6f2d1b"/>
  <circle cx="332" cy="205" r="54" fill="#6f2d1b"/>
  <circle cx="256" cy="134" r="44" fill="#6f2d1b"/>
  <path d="M145 305c27 0 48 20 51 46 1 6 6 11 13 11h94c7 0 12-5 13-11 3-26 24-46 51-46 30 0 55 24 55 55 0 63-75 96-166 96S90 423 90 360c0-31 24-55 55-55z" fill="#6f2d1b"/>
</svg>
